# xmcd
#
# Track frame offsets:
#	150
#	10734
#	23411
#	36156
#	47690
#	63268
#	75279
#	85742
#	96657
#	111326
#	124457
#	137257
#	152293
#	169090
#	204405
#	244486
#	271933
#	290413
#	321817
#
# Disc length: 4758 seconds
#
# Revision: 0
# Processed by: cddbd v1.5.1PL0 Copyright (c) Steve Scherf et al.
# Submitted via: dBpowerAMP V4.0
#
DISCID=f5129413
DTITLE=Curtis Mayfield - People Get Ready, The Curtis Mayfield Story Disc 1
DYEAR=1996
DGENRE=R and B
TTITLE0=Gypsy Woman
TTITLE1=It's All Right
TTITLE2=I'm So Proud
TTITLE3=Keep On Pushing
TTITLE4=Amen
TTITLE5=People Get Ready
TTITLE6=Woman's Got Soul
TTITLE7=We're A Winner
TTITLE8=I Loved And I Lost
TTITLE9=Fool For You
TTITLE10=This Is My Country
TTITLE11=Choice Of Colors
TTITLE12=The Makings of You
TTITLE13=(Don't Worry) if There's a Hell Below We're All to Go
TTITLE14=Move On Up
TTITLE15=We The People Who Are Darker Than Blue
TTITLE16=Check Out Your Mind
TTITLE17=Mighty Mighty (Spade And Whitey)
TTITLE18=Stone Junkie
EXTD=
EXTT0=
EXTT1=
EXTT2=
EXTT3=
EXTT4=
EXTT5=
EXTT6=
EXTT7=
EXTT8=
EXTT9=
EXTT10=
EXTT11=
EXTT12=
EXTT13=
EXTT14=
EXTT15=
EXTT16=
EXTT17=
EXTT18=
PLAYORDER=
